{"title":"Depeche Mode-Alive in Berlin 2014 [MultiSubs] 720p HDRip x264 AC","uid":11740979,"size":2808424737,"categoryP":"video","categoryS":"movies","magnet":"?xt=urn:btih:d93b47be9db4855f54672cf7b3b3f6b9a11c501e&amp;dn=Depeche+Mode-Alive+in+Berlin+2014+%5BMultiSubs%5D+720p+HDRip+x264+AC&amp;tr=udp%3A%2F%2Ftracker.openbittorrent.com%3A80&amp;tr=udp%3A%2F%2Fopen.demonii.com%3A1337&amp;tr=udp%3A%2F%2Ftracker.coppersurfer.tk%3A6969&amp;tr=udp%3A%2F%2Fexodus.desync.com%3A6969","seeders":11,"leechers":2,"uploader":"movieZ.freak","files":5,"time":1425823324,"description":"SOURCE: Depeche Mode Alive In Berlin 2014 WEB-DL 1080p\n\n &lt;a href=&quot;\nhttp://www.imdb.com/title/tt4105266/&quot; rel=&quot;nofollow&quot; target=&quot;_NEW&quot;&gt;\nhttp://www.imdb.com/title/tt4105266/&lt;/a&gt;\n\n\n\n- SAMPLE: Yes\n\n- SUBTITLE: English (separate SRT file), Spanish, French, Italian, German (softcoded - muxed)\n\n- LANGUAGE / AUDIO: English\n\n\n\nSCREENSHOTS:\n------------------- &lt;a href=&quot;\nhttp://someimage.com/QcPJ&quot; rel=&quot;nofollow&quot; target=&quot;_NEW&quot;&gt;\nhttp://someimage.com/QcPJ&lt;/a&gt;\n\n\n\nDIRECTOR: Anton Corbijn\n\n\nPERFORMERS (cast): Dave Gahan, Martin Gore, Andrew Fletcher, Christian Eigner (Drums), Peter Gordeno (Keyboards)\n\n\n\nSETLIST:\n--------------\n\n01 - Intro - Interview 1\n02 - Welcome To My World\n03 - Angel\n04 - Interview 2\n05 - Walking In My Shoes\n06 - Precious\n07 - Black Celebration\n08 - Interview 3\n09 - Should Be Higher\n10 - Interview 4\n11 - Policy Of Truth\n12 - The Child Inside\n13 - But Not Tonight\n14 - Heaven\n15 - Interview 5\n16 - Soothe My Soul\n17 - A Pain That I'm Used To\n18 - A Question Of Time\n19 - Interview 6\n20 - Enjoy The Silence\n21 - Personal Jesus\n22 - Interview 7\n23 - Shake The Disease\n24 - Interview 8\n25 - Halo\n26 - Interview 9\n27 - Just Can't Get Enough\n28 - I Feel You\n29 - Never Let Me Down Again\n30 - Goodbye\n--------------------------------------\n\nCredits:\n--------------\n31 - Condemnation\n32 - Judas\n\n\nINFO:\n-----------\nDepeche Mode Live in Berlin' was filmed on location at the O2 World Berlin on November 25th and 27th, 2013 during the band's extremely successful 'Delta Machine' Tour which saw them play to over 2.4 million people in 32 countries. Depeche Mode was touring in support of their lauded 13th studio album, 'Delta Machine,' which debuted at #1 in 12 countries worldwide in March 2013. The concert not only includes performances of tracks from 'Delta Machine' but also some of their most memorable and biggest hits including &quot;Personal Jesus&quot; and &quot;Enjoy the Silence.&quot; 'Alive in Berlin' includes the full live show, inter-spliced with behind-the-scenes footage, multiple interviews with the band and their fans, and a 2-song acoustic session, which was filmed at Salon Bel Ami, the oldest existing brothel in Berlin.\n\n************************************\n\n- Duration: 2h 34mn\n\n- Nominal bit rate: 1970 Kbps\n\n- Res: 1280 x 720\n\n- AR: 16:9\n\n- FPS: 25.000 fps\n\n- Audio: AC3, 6 channels, 448Kbps\n\n************************************\n\nGeneral\n--------------\nFormat : Matroska\nFormat version : Version 4 / Version 2\nFile size : 2.60 GiB\nDuration : 2h 34mn\nOverall bit rate : 2410 Kbps\nEncoded date : UTC 2015-03-08 12:16:13\nWriting application : mkvmerge v7.7.0 ('Six Voices') 64bit built on Feb 28 2015 23:39:33\nWriting library : libebml v1.3.1 + libmatroska v1.4.2\n\n\nVideo\n-----------\nFormat : AVC\nFormat/Info : Advanced Video Codec\nFormat profile : &lt;a class=&quot;__cf_email__&quot; href=&quot;/cdn-cgi/l/email-protection&quot; data-cfemail=&quot;521a3b353a121e667c63&quot;&gt;[email&amp;#160;protected]&lt;/a&gt;&lt;script cf-hash='f9e31' type=&quot;text/javascript&quot;&gt;\n/* &lt;![CDATA[ */!function(){try{var t=&quot;currentScript&quot;in document?document.currentScript:function(){for(var t=document.getElementsByTagName(&quot;script&quot;),e=t.length;e--;)if(t[e].getAttribute(&quot;cf-hash&quot;))return t[e]}();if(t&amp;&amp;t.previousSibling){var e,r,n,i,c=t.previousSibling,a=c.getAttribute(&quot;data-cfemail&quot;);if(a){for(e=&quot;&quot;,r=parseInt(a.substr(0,2),16),n=2;a.length-n;n+=2)i=parseInt(a.substr(n,2),16)^r,e+=String.fromCharCode(i);e=document.createTextNode(e),c.parentNode.replaceChild(e,c)}}}catch(u){}}();/* ]]&gt; */&lt;/script&gt;\nFormat settings, CABAC : Yes\nFormat settings, ReFrames : 4 frames\nCodec ID : V_MPEG4/ISO/AVC\nDuration : 2h 34mn\nBit rate : 1970 Kbps\nWidth : 1280 pixels\nHeight : 720 pixels\nDisplay aspect ratio : 16:9\nFrame rate mode : Constant\nFrame rate : 25.000 fps\nColor space : YUV\nChroma subsampling : 4:2:0\nBit depth : 8 bits\nScan type : Progressive\nBits/(Pixel*Frame) : 0.086\nStream size : 2.06 GiB (79%)\nWriting library : x264 core 142\nEncoding settings : cabac=1 / ref=4\nDefault : Yes\nForced : No\n\n\nAudio\n---------\nFormat : AC-3\nFormat/Info : Audio Coding 3\nMode extension : CM (complete main)\nFormat settings, Endianness : Big\nCodec ID : A_AC3\nDuration : 2h 34mn\nBit rate mode : Constant\nBit rate : 448 Kbps\nChannel(s) : 6 channels\nChannel positions : Front: L C R, Side: L R, LFE\nSampling rate : 48.0 KHz\nBit depth : 16 bits\nCompression mode : Lossy\nStream size : 494 MiB (19%)\nTitle : Surround\nLanguage : English\nDefault : Yes\nForced : No\n\n\nText 01\n--------\nFormat : ASS\nCodec ID : S_TEXT/ASS\nCodec ID/Info : Advanced Sub Station Alpha\nCompression mode : Lossless\nLanguage : Spanish\nDefault : No\nForced : No\n\n\nText 02\n------------\nFormat : ASS\nCodec ID : S_TEXT/ASS\nCodec ID/Info : Advanced Sub Station Alpha\nCompression mode : Lossless\nLanguage : French\nDefault : No\nForced : No\n\n\nText 03\n--------------\nFormat : ASS\nCodec ID : S_TEXT/ASS\nCodec ID/Info : Advanced Sub Station Alpha\nCompression mode : Lossless\nLanguage : Italian\nDefault : No\nForced : No\n\n\nText 04\n------------\nFormat : ASS\nCodec ID : S_TEXT/ASS\nCodec ID/Info : Advanced Sub Station Alpha\nCompression mode : Lossless\nLanguage : German\nDefault : No\nForced : No","torrent":{"xt":"urn:btih:d93b47be9db4855f54672cf7b3b3f6b9a11c501e","amp;dn":"Depeche+Mode-Alive+in+Berlin+2014+%5BMultiSubs%5D+720p+HDRip+x264+AC","amp;tr":["udp%3A%2F%2Ftracker.openbittorrent.com%3A80","udp%3A%2F%2Fopen.demonii.com%3A1337","udp%3A%2F%2Ftracker.coppersurfer.tk%3A6969","udp%3A%2F%2Fexodus.desync.com%3A6969"],"infoHash":"d93b47be9db4855f54672cf7b3b3f6b9a11c501e","infoHashBuffer":{"type":"Buffer","data":[217,59,71,190,157,180,133,95,84,103,44,247,179,179,246,185,161,28,80,30]},"announce":[],"urlList":[]}}